# xmcd
#
# Track frame offsets: 
#        182
#        17037
#        33487
#        51560
#        72472
#        97330
#        113172
#        131020
#        151425
#        175925
#        195400
#        215927
#        236517
#        260907
#        279595
#
# Disc length: 3994 seconds
#
# Revision: 1
# Processed by: cddbd v1.5.2PL0 Copyright (c) Steve Scherf et al.
# Submitted via: ExactAudioCopyFreeDBPlugin 1.0
#
DISCID=ee0f980f
DTITLE=Various Artist - Beats and Rhymes: Hip-Hop of the '90s
DYEAR=1997
DGENRE=Hip-Hop
TTITLE0=Leaders of the New School - Case Of The P.T.A
TTITLE1=A Tribe Called Quest - Check the Rhime
TTITLE2=Brand Nubian - Slow Down (Radio Version)
TTITLE3=Main Source - Live At The Barbeque
TTITLE4=Organized Konfusion - Fudge Pudge
TTITLE5=The UMC's - Blue Cheese
TTITLE6=Chubb Rock - The Chubbster
TTITLE7=DJ Jazzy Jeff and The Fresh Prince - Summertime
TTITLE8=DJ Quik - Tonite
TTITLE9=Heavy D. and  The Boyz - Now That We Found Love
TTITLE10=MC Lyte - Poor Georgie
TTITLE11=Chubb Rock - Treat 'em Right
TTITLE12=Eric B. and Rakim - What's On Your Mind (House Party II Rap The
TTITLE12=me)
TTITLE13=Run-D.M.C. - The Ave.
TTITLE14=Chubb Rock - Lost in the Storm (Marley's Hip-Hop Remix)
EXTD=
EXTT0=
EXTT1=
EXTT2=
EXTT3=
EXTT4=
EXTT5=
EXTT6=
EXTT7=
EXTT8=
EXTT9=
EXTT10=
EXTT11=
EXTT12=
EXTT13=
EXTT14=
PLAYORDER=
